<mxfile host="app.diagrams.net" modified="2023-09-12T18:32:42.293Z" agent="Mozilla/5.0 (Windows NT 10.0; Win64; x64) AppleWebKit/537.36 (KHTML, like Gecko) Chrome/116.0.0.0 Safari/537.36" etag="wzLIOtMaXIc9Th7Tf2be" version="21.7.4" type="device" pages="2">
  <diagram name="Página-1" id="AD0C2UAxBPuK-3kQIjN3">
    <mxGraphModel dx="765" dy="409" grid="1" gridSize="10" guides="1" tooltips="1" connect="1" arrows="1" fold="1" page="1" pageScale="1" pageWidth="827" pageHeight="1169" math="0" shadow="0">
      <root>
        <mxCell id="0" />
        <mxCell id="1" parent="0" />
        <mxCell id="_qLnpb_fFSx1nHqCNuGb-34" style="edgeStyle=orthogonalEdgeStyle;rounded=0;orthogonalLoop=1;jettySize=auto;html=1;entryX=0;entryY=0.625;entryDx=0;entryDy=0;entryPerimeter=0;" edge="1" parent="1" source="_qLnpb_fFSx1nHqCNuGb-2" target="_qLnpb_fFSx1nHqCNuGb-24">
          <mxGeometry relative="1" as="geometry" />
        </mxCell>
        <mxCell id="_qLnpb_fFSx1nHqCNuGb-35" style="edgeStyle=orthogonalEdgeStyle;rounded=0;orthogonalLoop=1;jettySize=auto;html=1;entryX=0;entryY=0.5;entryDx=0;entryDy=0;" edge="1" parent="1" source="_qLnpb_fFSx1nHqCNuGb-2" target="_qLnpb_fFSx1nHqCNuGb-25">
          <mxGeometry relative="1" as="geometry" />
        </mxCell>
        <mxCell id="_qLnpb_fFSx1nHqCNuGb-36" style="edgeStyle=orthogonalEdgeStyle;rounded=0;orthogonalLoop=1;jettySize=auto;html=1;entryX=0.025;entryY=0.775;entryDx=0;entryDy=0;entryPerimeter=0;" edge="1" parent="1" source="_qLnpb_fFSx1nHqCNuGb-2" target="_qLnpb_fFSx1nHqCNuGb-18">
          <mxGeometry relative="1" as="geometry" />
        </mxCell>
        <mxCell id="_qLnpb_fFSx1nHqCNuGb-37" style="edgeStyle=orthogonalEdgeStyle;rounded=0;orthogonalLoop=1;jettySize=auto;html=1;entryX=0;entryY=0.75;entryDx=0;entryDy=0;entryPerimeter=0;" edge="1" parent="1" source="_qLnpb_fFSx1nHqCNuGb-2" target="_qLnpb_fFSx1nHqCNuGb-21">
          <mxGeometry relative="1" as="geometry" />
        </mxCell>
        <mxCell id="_qLnpb_fFSx1nHqCNuGb-38" style="edgeStyle=orthogonalEdgeStyle;rounded=0;orthogonalLoop=1;jettySize=auto;html=1;entryX=0;entryY=0.625;entryDx=0;entryDy=0;entryPerimeter=0;" edge="1" parent="1" source="_qLnpb_fFSx1nHqCNuGb-2" target="_qLnpb_fFSx1nHqCNuGb-22">
          <mxGeometry relative="1" as="geometry" />
        </mxCell>
        <mxCell id="_qLnpb_fFSx1nHqCNuGb-39" style="edgeStyle=orthogonalEdgeStyle;rounded=0;orthogonalLoop=1;jettySize=auto;html=1;entryX=0;entryY=0.5;entryDx=0;entryDy=0;" edge="1" parent="1" source="_qLnpb_fFSx1nHqCNuGb-2" target="_qLnpb_fFSx1nHqCNuGb-28">
          <mxGeometry relative="1" as="geometry" />
        </mxCell>
        <mxCell id="_qLnpb_fFSx1nHqCNuGb-40" style="edgeStyle=orthogonalEdgeStyle;rounded=0;orthogonalLoop=1;jettySize=auto;html=1;entryX=0;entryY=0.625;entryDx=0;entryDy=0;entryPerimeter=0;" edge="1" parent="1" target="_qLnpb_fFSx1nHqCNuGb-27">
          <mxGeometry relative="1" as="geometry">
            <mxPoint x="90" y="280" as="sourcePoint" />
            <Array as="points">
              <mxPoint x="90" y="290" />
              <mxPoint x="120" y="290" />
              <mxPoint x="120" y="710" />
            </Array>
          </mxGeometry>
        </mxCell>
        <mxCell id="_qLnpb_fFSx1nHqCNuGb-2" value="Leitor" style="shape=umlActor;verticalLabelPosition=bottom;verticalAlign=top;html=1;outlineConnect=0;" vertex="1" parent="1">
          <mxGeometry x="40" y="250" width="40" height="80" as="geometry" />
        </mxCell>
        <mxCell id="_qLnpb_fFSx1nHqCNuGb-6" style="edgeStyle=orthogonalEdgeStyle;rounded=0;orthogonalLoop=1;jettySize=auto;html=1;exitX=0.5;exitY=1;exitDx=0;exitDy=0;" edge="1" parent="1">
          <mxGeometry relative="1" as="geometry">
            <mxPoint x="265" y="105" as="sourcePoint" />
            <mxPoint x="265" y="105" as="targetPoint" />
          </mxGeometry>
        </mxCell>
        <mxCell id="_qLnpb_fFSx1nHqCNuGb-12" style="edgeStyle=orthogonalEdgeStyle;rounded=0;orthogonalLoop=1;jettySize=auto;html=1;exitX=0.5;exitY=1;exitDx=0;exitDy=0;" edge="1" parent="1">
          <mxGeometry relative="1" as="geometry">
            <mxPoint x="240" y="80" as="sourcePoint" />
            <mxPoint x="240" y="80" as="targetPoint" />
          </mxGeometry>
        </mxCell>
        <mxCell id="_qLnpb_fFSx1nHqCNuGb-17" value="Empréstimo" style="ellipse;whiteSpace=wrap;html=1;" vertex="1" parent="1">
          <mxGeometry x="380" y="380" width="120" height="80" as="geometry" />
        </mxCell>
        <mxCell id="_qLnpb_fFSx1nHqCNuGb-18" value="Livros emprestados&amp;nbsp;" style="ellipse;whiteSpace=wrap;html=1;opacity=80;" vertex="1" parent="1">
          <mxGeometry x="150" y="240" width="120" height="80" as="geometry" />
        </mxCell>
        <mxCell id="_qLnpb_fFSx1nHqCNuGb-21" value="Leitores registrados" style="ellipse;whiteSpace=wrap;html=1;" vertex="1" parent="1">
          <mxGeometry x="150" y="350" width="120" height="80" as="geometry" />
        </mxCell>
        <mxCell id="_qLnpb_fFSx1nHqCNuGb-22" value="Histórico" style="ellipse;whiteSpace=wrap;html=1;" vertex="1" parent="1">
          <mxGeometry x="150" y="460" width="120" height="80" as="geometry" />
        </mxCell>
        <mxCell id="_qLnpb_fFSx1nHqCNuGb-24" value="Livros Disponíveis" style="ellipse;whiteSpace=wrap;html=1;" vertex="1" parent="1">
          <mxGeometry x="150" y="20" width="120" height="80" as="geometry" />
        </mxCell>
        <mxCell id="_qLnpb_fFSx1nHqCNuGb-25" value="Registrar leitor" style="ellipse;whiteSpace=wrap;html=1;" vertex="1" parent="1">
          <mxGeometry x="150" y="130" width="120" height="80" as="geometry" />
        </mxCell>
        <mxCell id="_qLnpb_fFSx1nHqCNuGb-42" style="edgeStyle=orthogonalEdgeStyle;rounded=0;orthogonalLoop=1;jettySize=auto;html=1;exitX=0;exitY=1;exitDx=0;exitDy=0;exitPerimeter=0;" edge="1" parent="1" source="_qLnpb_fFSx1nHqCNuGb-26" target="_qLnpb_fFSx1nHqCNuGb-17">
          <mxGeometry relative="1" as="geometry" />
        </mxCell>
        <mxCell id="_qLnpb_fFSx1nHqCNuGb-62" value="" style="edgeStyle=orthogonalEdgeStyle;rounded=0;orthogonalLoop=1;jettySize=auto;html=1;exitX=1;exitY=1;exitDx=0;exitDy=0;exitPerimeter=0;entryX=0.5;entryY=0;entryDx=0;entryDy=0;" edge="1" parent="1" source="_qLnpb_fFSx1nHqCNuGb-26" target="_qLnpb_fFSx1nHqCNuGb-53">
          <mxGeometry relative="1" as="geometry" />
        </mxCell>
        <mxCell id="_qLnpb_fFSx1nHqCNuGb-26" value="Bibliotecário" style="shape=umlActor;verticalLabelPosition=bottom;verticalAlign=top;html=1;outlineConnect=0;" vertex="1" parent="1">
          <mxGeometry x="500" y="190" width="50" height="70" as="geometry" />
        </mxCell>
        <mxCell id="_qLnpb_fFSx1nHqCNuGb-27" value="Devolução" style="ellipse;whiteSpace=wrap;html=1;" vertex="1" parent="1">
          <mxGeometry x="150" y="660" width="120" height="80" as="geometry" />
        </mxCell>
        <mxCell id="_qLnpb_fFSx1nHqCNuGb-28" value="Empréstimo" style="ellipse;whiteSpace=wrap;html=1;" vertex="1" parent="1">
          <mxGeometry x="150" y="560" width="120" height="80" as="geometry" />
        </mxCell>
        <mxCell id="_qLnpb_fFSx1nHqCNuGb-53" value="Devolução" style="ellipse;whiteSpace=wrap;html=1;" vertex="1" parent="1">
          <mxGeometry x="560" y="380" width="120" height="80" as="geometry" />
        </mxCell>
        <mxCell id="_qLnpb_fFSx1nHqCNuGb-59" value="" style="shape=waypoint;sketch=0;size=6;pointerEvents=1;points=[];fillColor=default;resizable=0;rotatable=0;perimeter=centerPerimeter;snapToPoint=1;verticalAlign=top;" vertex="1" parent="1">
          <mxGeometry x="515" y="365" width="20" height="20" as="geometry" />
        </mxCell>
      </root>
    </mxGraphModel>
  </diagram>
  <diagram id="h-FvJbKFbLZlJsROOSj0" name="Página-2">
    <mxGraphModel dx="880" dy="470" grid="1" gridSize="10" guides="1" tooltips="1" connect="1" arrows="1" fold="1" page="1" pageScale="1" pageWidth="827" pageHeight="1169" math="0" shadow="0">
      <root>
        <mxCell id="0" />
        <mxCell id="1" parent="0" />
        <mxCell id="IQ6gYS1NHee6IRX8WekB-10" style="edgeStyle=orthogonalEdgeStyle;rounded=0;orthogonalLoop=1;jettySize=auto;html=1;entryX=0.013;entryY=0.231;entryDx=0;entryDy=0;entryPerimeter=0;" edge="1" parent="1" source="lytKdEg7UcL5zZjestdz-8" target="lytKdEg7UcL5zZjestdz-17">
          <mxGeometry relative="1" as="geometry" />
        </mxCell>
        <mxCell id="IQ6gYS1NHee6IRX8WekB-12" value="1" style="edgeLabel;html=1;align=center;verticalAlign=middle;resizable=0;points=[];" vertex="1" connectable="0" parent="IQ6gYS1NHee6IRX8WekB-10">
          <mxGeometry x="-0.8101" y="-4" relative="1" as="geometry">
            <mxPoint as="offset" />
          </mxGeometry>
        </mxCell>
        <mxCell id="IQ6gYS1NHee6IRX8WekB-13" value="n" style="edgeLabel;html=1;align=center;verticalAlign=middle;resizable=0;points=[];" vertex="1" connectable="0" parent="IQ6gYS1NHee6IRX8WekB-10">
          <mxGeometry x="0.7593" y="1" relative="1" as="geometry">
            <mxPoint as="offset" />
          </mxGeometry>
        </mxCell>
        <mxCell id="lytKdEg7UcL5zZjestdz-8" value="Leitor" style="swimlane;fontStyle=0;childLayout=stackLayout;horizontal=1;startSize=26;fillColor=none;horizontalStack=0;resizeParent=1;resizeParentMax=0;resizeLast=0;collapsible=1;marginBottom=0;whiteSpace=wrap;html=1;" vertex="1" parent="1">
          <mxGeometry x="110" y="220" width="140" height="74" as="geometry" />
        </mxCell>
        <mxCell id="lytKdEg7UcL5zZjestdz-9" value="Nome" style="text;strokeColor=none;fillColor=none;align=left;verticalAlign=top;spacingLeft=4;spacingRight=4;overflow=hidden;rotatable=0;points=[[0,0.5],[1,0.5]];portConstraint=eastwest;whiteSpace=wrap;html=1;" vertex="1" parent="lytKdEg7UcL5zZjestdz-8">
          <mxGeometry y="26" width="140" height="24" as="geometry" />
        </mxCell>
        <mxCell id="IQ6gYS1NHee6IRX8WekB-9" value="Nome" style="text;strokeColor=none;fillColor=none;align=left;verticalAlign=top;spacingLeft=4;spacingRight=4;overflow=hidden;rotatable=0;points=[[0,0.5],[1,0.5]];portConstraint=eastwest;whiteSpace=wrap;html=1;" vertex="1" parent="lytKdEg7UcL5zZjestdz-8">
          <mxGeometry y="50" width="140" height="24" as="geometry" />
        </mxCell>
        <mxCell id="lytKdEg7UcL5zZjestdz-12" value="Livro" style="swimlane;fontStyle=0;childLayout=stackLayout;horizontal=1;startSize=26;fillColor=none;horizontalStack=0;resizeParent=1;resizeParentMax=0;resizeLast=0;collapsible=1;marginBottom=0;whiteSpace=wrap;html=1;" vertex="1" parent="1">
          <mxGeometry x="490" y="234" width="140" height="104" as="geometry" />
        </mxCell>
        <mxCell id="lytKdEg7UcL5zZjestdz-13" value="Nome" style="text;strokeColor=none;fillColor=none;align=left;verticalAlign=top;spacingLeft=4;spacingRight=4;overflow=hidden;rotatable=0;points=[[0,0.5],[1,0.5]];portConstraint=eastwest;whiteSpace=wrap;html=1;" vertex="1" parent="lytKdEg7UcL5zZjestdz-12">
          <mxGeometry y="26" width="140" height="26" as="geometry" />
        </mxCell>
        <mxCell id="lytKdEg7UcL5zZjestdz-14" value="ISBN" style="text;strokeColor=none;fillColor=none;align=left;verticalAlign=top;spacingLeft=4;spacingRight=4;overflow=hidden;rotatable=0;points=[[0,0.5],[1,0.5]];portConstraint=eastwest;whiteSpace=wrap;html=1;" vertex="1" parent="lytKdEg7UcL5zZjestdz-12">
          <mxGeometry y="52" width="140" height="26" as="geometry" />
        </mxCell>
        <mxCell id="lytKdEg7UcL5zZjestdz-15" value="Autor" style="text;strokeColor=none;fillColor=none;align=left;verticalAlign=top;spacingLeft=4;spacingRight=4;overflow=hidden;rotatable=0;points=[[0,0.5],[1,0.5]];portConstraint=eastwest;whiteSpace=wrap;html=1;" vertex="1" parent="lytKdEg7UcL5zZjestdz-12">
          <mxGeometry y="78" width="140" height="26" as="geometry" />
        </mxCell>
        <mxCell id="lytKdEg7UcL5zZjestdz-16" value="Histórico" style="swimlane;fontStyle=1;align=center;verticalAlign=top;childLayout=stackLayout;horizontal=1;startSize=26;horizontalStack=0;resizeParent=1;resizeParentMax=0;resizeLast=0;collapsible=1;marginBottom=0;whiteSpace=wrap;html=1;" vertex="1" parent="1">
          <mxGeometry x="270" y="370" width="160" height="86" as="geometry" />
        </mxCell>
        <mxCell id="lytKdEg7UcL5zZjestdz-17" value="Leitor" style="text;strokeColor=none;fillColor=none;align=left;verticalAlign=top;spacingLeft=4;spacingRight=4;overflow=hidden;rotatable=0;points=[[0,0.5],[1,0.5]];portConstraint=eastwest;whiteSpace=wrap;html=1;" vertex="1" parent="lytKdEg7UcL5zZjestdz-16">
          <mxGeometry y="26" width="160" height="26" as="geometry" />
        </mxCell>
        <mxCell id="lytKdEg7UcL5zZjestdz-18" value="" style="line;strokeWidth=1;fillColor=none;align=left;verticalAlign=middle;spacingTop=-1;spacingLeft=3;spacingRight=3;rotatable=0;labelPosition=right;points=[];portConstraint=eastwest;strokeColor=inherit;" vertex="1" parent="lytKdEg7UcL5zZjestdz-16">
          <mxGeometry y="52" width="160" height="8" as="geometry" />
        </mxCell>
        <mxCell id="lytKdEg7UcL5zZjestdz-19" value="Livro" style="text;strokeColor=none;fillColor=none;align=left;verticalAlign=top;spacingLeft=4;spacingRight=4;overflow=hidden;rotatable=0;points=[[0,0.5],[1,0.5]];portConstraint=eastwest;whiteSpace=wrap;html=1;" vertex="1" parent="lytKdEg7UcL5zZjestdz-16">
          <mxGeometry y="60" width="160" height="26" as="geometry" />
        </mxCell>
        <mxCell id="IQ6gYS1NHee6IRX8WekB-14" value="" style="edgeStyle=orthogonalEdgeStyle;rounded=0;orthogonalLoop=1;jettySize=auto;html=1;entryX=0.464;entryY=1.038;entryDx=0;entryDy=0;entryPerimeter=0;" edge="1" parent="1" source="lytKdEg7UcL5zZjestdz-17" target="lytKdEg7UcL5zZjestdz-15">
          <mxGeometry relative="1" as="geometry" />
        </mxCell>
        <mxCell id="IQ6gYS1NHee6IRX8WekB-15" value="1" style="edgeLabel;html=1;align=center;verticalAlign=middle;resizable=0;points=[];" vertex="1" connectable="0" parent="IQ6gYS1NHee6IRX8WekB-14">
          <mxGeometry x="0.7127" relative="1" as="geometry">
            <mxPoint as="offset" />
          </mxGeometry>
        </mxCell>
        <mxCell id="IQ6gYS1NHee6IRX8WekB-16" value="n" style="edgeLabel;html=1;align=center;verticalAlign=middle;resizable=0;points=[];" vertex="1" connectable="0" parent="IQ6gYS1NHee6IRX8WekB-14">
          <mxGeometry x="-0.7641" relative="1" as="geometry">
            <mxPoint as="offset" />
          </mxGeometry>
        </mxCell>
      </root>
    </mxGraphModel>
  </diagram>
</mxfile>
